<svg width="375" height="40" viewBox="0 0 375 40" fill="none" xmlns="http://www.w3.org/2000/svg">
<g clip-path="url(#clip0_135_2397)">
<path d="M54 2H0V38H54V2Z" fill="#003399"/>
<path d="M27 6L26.382 7.90211L27.333 8.21113L27 6Z" fill="#FFCC00"/>
<path d="M27 6L27.618 7.90211L26.667 8.21113L27 6Z" fill="#FFCC00"/>
<path d="M28.8984 7.38196H26.8984V8.38196L28.8984 7.38196Z" fill="#FFCC00"/>
<path d="M28.8984 7.38196L27.2804 8.55753L26.6926 7.74851L28.8984 7.38196Z" fill="#FFCC00"/>
<path d="M28.1953 9.61792L27.5773 7.71581L26.6262 8.02482L28.1953 9.61792Z" fill="#FFCC00"/>
<path d="M28.1953 9.61792L26.5773 8.44235L27.1651 7.63333L28.1953 9.61792Z" fill="#FFCC00"/>
<path d="M25.1211 7.38196H27.1211V8.38196L25.1211 7.38196Z" fill="#FFCC00"/>
<path d="M25.1211 7.38196L26.7391 8.55753L27.3269 7.74851L25.1211 7.38196Z" fill="#FFCC00"/>
<path d="M25.8242 9.61792L26.4423 7.71581L27.3933 8.02482L25.8242 9.61792Z" fill="#FFCC00"/>
<path d="M25.8242 9.61792L27.4423 8.44235L26.8545 7.63333L25.8242 9.61792Z" fill="#FFCC00"/>
<path d="M27 30L26.382 31.9021L27.333 32.2111L27 30Z" fill="#FFCC00"/>
<path d="M27 30L27.618 31.9021L26.667 32.2111L27 30Z" fill="#FFCC00"/>
<path d="M28.8984 31.382H26.8984V32.382L28.8984 31.382Z" fill="#FFCC00"/>
<path d="M28.8984 31.382L27.2804 32.5575L26.6926 31.7485L28.8984 31.382Z" fill="#FFCC00"/>
<path d="M28.1953 33.6179L27.5773 31.7158L26.6262 32.0248L28.1953 33.6179Z" fill="#FFCC00"/>
<path d="M28.1953 33.6179L26.5773 32.4423L27.1651 31.6333L28.1953 33.6179Z" fill="#FFCC00"/>
<path d="M25.1211 31.382H27.1211V32.382L25.1211 31.382Z" fill="#FFCC00"/>
<path d="M25.1211 31.382L26.7391 32.5575L27.3269 31.7485L25.1211 31.382Z" fill="#FFCC00"/>
<path d="M25.8242 33.6179L26.4423 31.7158L27.3933 32.0248L25.8242 33.6179Z" fill="#FFCC00"/>
<path d="M25.8242 33.6179L27.4423 32.4423L26.8545 31.6333L25.8242 33.6179Z" fill="#FFCC00"/>
<path d="M15 18.0001L14.382 19.9022L15.333 20.2113L15 18.0001Z" fill="#FFCC00"/>
<path d="M15 18.0001L15.618 19.9022L14.667 20.2113L15 18.0001Z" fill="#FFCC00"/>
<path d="M16.8984 19.3821H14.8984V20.3821L16.8984 19.3821Z" fill="#FFCC00"/>
<path d="M16.8984 19.3821L15.2804 20.5577L14.6926 19.7486L16.8984 19.3821Z" fill="#FFCC00"/>
<path d="M16.1953 21.618L15.5773 19.7159L14.6262 20.0249L16.1953 21.618Z" fill="#FFCC00"/>
<path d="M16.1953 21.618L14.5773 20.4425L15.1651 19.6335L16.1953 21.618Z" fill="#FFCC00"/>
<path d="M13.1211 19.3821H15.1211V20.3821L13.1211 19.3821Z" fill="#FFCC00"/>
<path d="M13.1211 19.3821L14.7391 20.5577L15.3269 19.7486L13.1211 19.3821Z" fill="#FFCC00"/>
<path d="M13.8242 21.618L14.4423 19.7159L15.3933 20.0249L13.8242 21.618Z" fill="#FFCC00"/>
<path d="M13.8242 21.618L15.4423 20.4425L14.8545 19.6335L13.8242 21.618Z" fill="#FFCC00"/>
<path d="M19.8242 11.2255L21.4423 10.0499L20.8545 9.24088L19.8242 11.2255Z" fill="#FFCC00"/>
<path d="M19.8242 11.2255L20.4423 9.32335L21.3933 9.63237L19.8242 11.2255Z" fill="#FFCC00"/>
<path d="M19.0977 8.98938L20.7157 10.165L21.3035 9.35593L19.0977 8.98938Z" fill="#FFCC00"/>
<path d="M19.0977 8.98938H21.0977V9.98938L19.0977 8.98938Z" fill="#FFCC00"/>
<path d="M21 7.60742L20.382 9.50953L21.333 9.81855L21 7.60742Z" fill="#FFCC00"/>
<path d="M21 7.60742L21.618 9.50953L20.667 9.81855L21 7.60742Z" fill="#FFCC00"/>
<path d="M22.1758 11.2256L20.5577 10.05L21.1455 9.241L22.1758 11.2256Z" fill="#FFCC00"/>
<path d="M22.1758 11.2256L21.5577 9.32347L20.6067 9.63249L22.1758 11.2256Z" fill="#FFCC00"/>
<path d="M22.9023 8.98938L21.2843 10.165L20.6965 9.35593L22.9023 8.98938Z" fill="#FFCC00"/>
<path d="M22.9023 8.98938H20.9023V9.98938L22.9023 8.98938Z" fill="#FFCC00"/>
<path d="M17.7852 15.618L17.1671 13.7159L16.2161 14.0249L17.7852 15.618Z" fill="#FFCC00"/>
<path d="M17.7852 15.618L16.1671 14.4425L16.7549 13.6335L17.7852 15.618Z" fill="#FFCC00"/>
<path d="M15.4336 15.618L17.0516 14.4425L16.4638 13.6335L15.4336 15.618Z" fill="#FFCC00"/>
<path d="M15.4336 15.618L16.0516 13.7159L17.0027 14.0249L15.4336 15.618Z" fill="#FFCC00"/>
<path d="M14.707 13.3818L16.3251 14.5574L16.9129 13.7484L14.707 13.3818Z" fill="#FFCC00"/>
<path d="M14.707 13.3818H16.707V14.3818L14.707 13.3818Z" fill="#FFCC00"/>
<path d="M18.5117 13.382L16.8937 14.5575L16.3059 13.7485L18.5117 13.382Z" fill="#FFCC00"/>
<path d="M18.5117 13.382H16.5117V14.382L18.5117 13.382Z" fill="#FFCC00"/>
<path d="M16.6094 12L17.2274 13.9021L16.2764 14.2111L16.6094 12Z" fill="#FFCC00"/>
<path d="M16.6094 12L15.9913 13.9021L16.9424 14.2111L16.6094 12Z" fill="#FFCC00"/>
<path d="M18.5078 25.3821H16.5078V26.3821L18.5078 25.3821Z" fill="#FFCC00"/>
<path d="M18.5078 25.3821L16.8898 26.5577L16.302 25.7486L18.5078 25.3821Z" fill="#FFCC00"/>
<path d="M17.7969 27.6178L17.1788 25.7157L16.2278 26.0247L17.7969 27.6178Z" fill="#FFCC00"/>
<path d="M17.7969 27.6178L16.1788 26.4422L16.7666 25.6332L17.7969 27.6178Z" fill="#FFCC00"/>
<path d="M15.4453 27.6179L17.0633 26.4423L16.4756 25.6333L15.4453 27.6179Z" fill="#FFCC00"/>
<path d="M15.4453 27.6179L16.0633 25.7158L17.0144 26.0248L15.4453 27.6179Z" fill="#FFCC00"/>
<path d="M16.6289 24L17.2469 25.9021L16.2959 26.2111L16.6289 24Z" fill="#FFCC00"/>
<path d="M16.6289 24L16.0109 25.9021L16.9619 26.2111L16.6289 24Z" fill="#FFCC00"/>
<path d="M14.7266 25.3821H16.7266V26.3821L14.7266 25.3821Z" fill="#FFCC00"/>
<path d="M14.7266 25.3821L16.3446 26.5577L16.9324 25.7486L14.7266 25.3821Z" fill="#FFCC00"/>
<path d="M22.8984 29.7744H20.8984V30.7744L22.8984 29.7744Z" fill="#FFCC00"/>
<path d="M22.8984 29.7744L21.2804 30.95L20.6926 30.141L22.8984 29.7744Z" fill="#FFCC00"/>
<path d="M22.1875 32.0101L21.5695 30.108L20.6184 30.417L22.1875 32.0101Z" fill="#FFCC00"/>
<path d="M22.1875 32.0101L20.5695 30.8346L21.1573 30.0255L22.1875 32.0101Z" fill="#FFCC00"/>
<path d="M19.8359 32.0103L21.454 30.8347L20.8662 30.0257L19.8359 32.0103Z" fill="#FFCC00"/>
<path d="M19.8359 32.0103L20.454 30.1081L21.405 30.4172L19.8359 32.0103Z" fill="#FFCC00"/>
<path d="M21.0195 28.3923L21.6376 30.2944L20.6865 30.6035L21.0195 28.3923Z" fill="#FFCC00"/>
<path d="M21.0195 28.3923L20.4015 30.2944L21.3526 30.6035L21.0195 28.3923Z" fill="#FFCC00"/>
<path d="M19.1172 29.7744H21.1172V30.7744L19.1172 29.7744Z" fill="#FFCC00"/>
<path d="M19.1172 29.7744L20.7352 30.95L21.323 30.141L19.1172 29.7744Z" fill="#FFCC00"/>
<path d="M39 18.0001L39.618 19.9022L38.667 20.2113L39 18.0001Z" fill="#FFCC00"/>
<path d="M39 18.0001L38.382 19.9022L39.333 20.2113L39 18.0001Z" fill="#FFCC00"/>
<path d="M37.1016 19.3821H39.1016V20.3821L37.1016 19.3821Z" fill="#FFCC00"/>
<path d="M37.1016 19.3821L38.7196 20.5577L39.3074 19.7486L37.1016 19.3821Z" fill="#FFCC00"/>
<path d="M37.8047 21.618L38.4227 19.7159L39.3738 20.0249L37.8047 21.618Z" fill="#FFCC00"/>
<path d="M37.8047 21.618L39.4227 20.4425L38.8349 19.6335L37.8047 21.618Z" fill="#FFCC00"/>
<path d="M40.8789 19.3821H38.8789V20.3821L40.8789 19.3821Z" fill="#FFCC00"/>
<path d="M40.8789 19.3821L39.2609 20.5577L38.6731 19.7486L40.8789 19.3821Z" fill="#FFCC00"/>
<path d="M40.1758 21.618L39.5577 19.7159L38.6067 20.0249L40.1758 21.618Z" fill="#FFCC00"/>
<path d="M40.1758 21.618L38.5577 20.4425L39.1455 19.6335L40.1758 21.618Z" fill="#FFCC00"/>
<path d="M34.1758 11.2255L32.5577 10.0499L33.1455 9.24088L34.1758 11.2255Z" fill="#FFCC00"/>
<path d="M34.1758 11.2255L33.5577 9.32335L32.6067 9.63237L34.1758 11.2255Z" fill="#FFCC00"/>
<path d="M34.9023 8.98938L33.2843 10.165L32.6965 9.35593L34.9023 8.98938Z" fill="#FFCC00"/>
<path d="M34.9023 8.98938H32.9023V9.98938L34.9023 8.98938Z" fill="#FFCC00"/>
<path d="M33 7.60742L33.618 9.50953L32.667 9.81855L33 7.60742Z" fill="#FFCC00"/>
<path d="M33 7.60742L32.382 9.50953L33.333 9.81855L33 7.60742Z" fill="#FFCC00"/>
<path d="M31.8242 11.2256L33.4423 10.05L32.8545 9.241L31.8242 11.2256Z" fill="#FFCC00"/>
<path d="M31.8242 11.2256L32.4423 9.32347L33.3933 9.63249L31.8242 11.2256Z" fill="#FFCC00"/>
<path d="M31.0977 8.98938L32.7157 10.165L33.3035 9.35593L31.0977 8.98938Z" fill="#FFCC00"/>
<path d="M31.0977 8.98938H33.0977V9.98938L31.0977 8.98938Z" fill="#FFCC00"/>
<path d="M36.2148 15.618L36.8329 13.7159L37.7839 14.0249L36.2148 15.618Z" fill="#FFCC00"/>
<path d="M36.2148 15.618L37.8329 14.4425L37.2451 13.6335L36.2148 15.618Z" fill="#FFCC00"/>
<path d="M38.5664 15.618L36.9484 14.4425L37.5362 13.6335L38.5664 15.618Z" fill="#FFCC00"/>
<path d="M38.5664 15.618L37.9484 13.7159L36.9973 14.0249L38.5664 15.618Z" fill="#FFCC00"/>
<path d="M39.293 13.3818L37.6749 14.5574L37.0871 13.7484L39.293 13.3818Z" fill="#FFCC00"/>
<path d="M39.293 13.3818H37.293V14.3818L39.293 13.3818Z" fill="#FFCC00"/>
<path d="M35.4883 13.382L37.1063 14.5575L37.6941 13.7485L35.4883 13.382Z" fill="#FFCC00"/>
<path d="M35.4883 13.382H37.4883V14.382L35.4883 13.382Z" fill="#FFCC00"/>
<path d="M37.3906 12L36.7726 13.9021L37.7236 14.2111L37.3906 12Z" fill="#FFCC00"/>
<path d="M37.3906 12L38.0087 13.9021L37.0576 14.2111L37.3906 12Z" fill="#FFCC00"/>
<path d="M35.4922 25.3821H37.4922V26.3821L35.4922 25.3821Z" fill="#FFCC00"/>
<path d="M35.4922 25.3821L37.1102 26.5577L37.698 25.7486L35.4922 25.3821Z" fill="#FFCC00"/>
<path d="M36.2031 27.6178L36.8212 25.7157L37.7722 26.0247L36.2031 27.6178Z" fill="#FFCC00"/>
<path d="M36.2031 27.6178L37.8212 26.4422L37.2334 25.6332L36.2031 27.6178Z" fill="#FFCC00"/>
<path d="M38.5547 27.6179L36.9367 26.4423L37.5244 25.6333L38.5547 27.6179Z" fill="#FFCC00"/>
<path d="M38.5547 27.6179L37.9367 25.7158L36.9856 26.0248L38.5547 27.6179Z" fill="#FFCC00"/>
<path d="M37.3711 24L36.7531 25.9021L37.7041 26.2111L37.3711 24Z" fill="#FFCC00"/>
<path d="M37.3711 24L37.9891 25.9021L37.0381 26.2111L37.3711 24Z" fill="#FFCC00"/>
<path d="M39.2734 25.3821H37.2734V26.3821L39.2734 25.3821Z" fill="#FFCC00"/>
<path d="M39.2734 25.3821L37.6554 26.5577L37.0676 25.7486L39.2734 25.3821Z" fill="#FFCC00"/>
<path d="M31.1016 29.7744H33.1016V30.7744L31.1016 29.7744Z" fill="#FFCC00"/>
<path d="M31.1016 29.7744L32.7196 30.95L33.3074 30.141L31.1016 29.7744Z" fill="#FFCC00"/>
<path d="M31.8125 32.0101L32.4305 30.108L33.3816 30.417L31.8125 32.0101Z" fill="#FFCC00"/>
<path d="M31.8125 32.0101L33.4305 30.8346L32.8427 30.0255L31.8125 32.0101Z" fill="#FFCC00"/>
<path d="M34.1641 32.0103L32.546 30.8347L33.1338 30.0257L34.1641 32.0103Z" fill="#FFCC00"/>
<path d="M34.1641 32.0103L33.546 30.1081L32.595 30.4172L34.1641 32.0103Z" fill="#FFCC00"/>
<path d="M32.9805 28.3923L32.3624 30.2944L33.3135 30.6035L32.9805 28.3923Z" fill="#FFCC00"/>
<path d="M32.9805 28.3923L33.5985 30.2944L32.6474 30.6035L32.9805 28.3923Z" fill="#FFCC00"/>
<path d="M34.8828 29.7744H32.8828V30.7744L34.8828 29.7744Z" fill="#FFCC00"/>
<path d="M34.8828 29.7744L33.2648 30.95L32.677 30.141L34.8828 29.7744Z" fill="#FFCC00"/>
</g>
<path d="M62.7275 23.5V16.3418H68.0352V17.5527H64.1729V19.1396H67.7666V20.3457H64.1729V22.2939H68.1719V23.5H62.7275ZM69.5877 16.3418H71.033V20.2188C71.033 20.834 71.0509 21.2327 71.0867 21.415C71.1486 21.708 71.2951 21.944 71.5262 22.123C71.7605 22.2988 72.0796 22.3867 72.4832 22.3867C72.8934 22.3867 73.2026 22.3037 73.4109 22.1377C73.6193 21.9684 73.7446 21.7617 73.7869 21.5176C73.8292 21.2734 73.8504 20.8682 73.8504 20.3018V16.3418H75.2957V20.1016C75.2957 20.9609 75.2566 21.568 75.1785 21.9229C75.1004 22.2777 74.9555 22.5771 74.7439 22.8213C74.5356 23.0654 74.2557 23.2607 73.9041 23.4072C73.5525 23.5505 73.0936 23.6221 72.5271 23.6221C71.8436 23.6221 71.3243 23.5439 70.9695 23.3877C70.618 23.2282 70.3396 23.0231 70.1346 22.7725C69.9295 22.5186 69.7944 22.2533 69.7293 21.9766C69.6349 21.5664 69.5877 20.9609 69.5877 20.1602V16.3418ZM77.0289 23.5V16.3418H80.0709C80.8359 16.3418 81.3909 16.4069 81.7359 16.5371C82.0842 16.6641 82.3626 16.8919 82.5709 17.2207C82.7792 17.5495 82.8834 17.9255 82.8834 18.3486C82.8834 18.8857 82.7255 19.3301 82.4098 19.6816C82.094 20.0299 81.622 20.2497 80.9937 20.3408C81.3062 20.5231 81.5634 20.7233 81.7652 20.9414C81.9703 21.1595 82.2454 21.5469 82.5904 22.1035L83.4645 23.5H81.7359L80.691 21.9424C80.3199 21.3857 80.066 21.0358 79.9293 20.8926C79.7926 20.7461 79.6477 20.6468 79.4947 20.5947C79.3417 20.5394 79.0992 20.5117 78.7672 20.5117H78.4742V23.5H77.0289ZM78.4742 19.3691H79.5436C80.2369 19.3691 80.6699 19.3398 80.8424 19.2812C81.0149 19.2227 81.15 19.1217 81.2477 18.9785C81.3453 18.8353 81.3941 18.6562 81.3941 18.4414C81.3941 18.2005 81.329 18.0068 81.1988 17.8604C81.0719 17.7106 80.8912 17.6162 80.6568 17.5771C80.5396 17.5609 80.1881 17.5527 79.6021 17.5527H78.4742V19.3691ZM84.1576 19.9648C84.1576 19.2357 84.2667 18.6237 84.4848 18.1289C84.6475 17.7643 84.8689 17.4372 85.1488 17.1475C85.432 16.8577 85.7413 16.6429 86.0766 16.5029C86.5225 16.3141 87.0368 16.2197 87.6195 16.2197C88.6742 16.2197 89.5173 16.5469 90.1488 17.2012C90.7836 17.8555 91.101 18.7653 91.101 19.9307C91.101 21.0863 90.7868 21.9912 90.1586 22.6455C89.5303 23.2965 88.6905 23.6221 87.6391 23.6221C86.5746 23.6221 85.7283 23.2982 85.1 22.6504C84.4717 21.9993 84.1576 21.1042 84.1576 19.9648ZM85.6469 19.916C85.6469 20.7266 85.834 21.3418 86.2084 21.7617C86.5827 22.1784 87.058 22.3867 87.6342 22.3867C88.2104 22.3867 88.6824 22.18 89.0502 21.7666C89.4213 21.3499 89.6068 20.7266 89.6068 19.8965C89.6068 19.0762 89.4262 18.4642 89.0648 18.0605C88.7068 17.6569 88.2299 17.4551 87.6342 17.4551C87.0385 17.4551 86.5583 17.6602 86.1938 18.0703C85.8292 18.4772 85.6469 19.0924 85.6469 19.916ZM92.4338 23.5V16.3418H94.7531C95.632 16.3418 96.2049 16.3776 96.4719 16.4492C96.882 16.5566 97.2255 16.791 97.5021 17.1523C97.7788 17.5104 97.9172 17.9743 97.9172 18.5439C97.9172 18.9834 97.8374 19.3529 97.6779 19.6523C97.5184 19.9518 97.315 20.1878 97.0676 20.3604C96.8234 20.5296 96.5744 20.6419 96.3205 20.6973C95.9755 20.7656 95.4758 20.7998 94.8215 20.7998H93.8791V23.5H92.4338ZM93.8791 17.5527V19.584H94.6701C95.2398 19.584 95.6206 19.5465 95.8127 19.4717C96.0048 19.3968 96.1545 19.2796 96.2619 19.1201C96.3726 18.9606 96.4279 18.7751 96.4279 18.5635C96.4279 18.3031 96.3514 18.0882 96.1984 17.9189C96.0454 17.7497 95.8518 17.6439 95.6174 17.6016C95.4449 17.569 95.0982 17.5527 94.5773 17.5527H93.8791ZM99.3037 23.5V16.3418H104.611V17.5527H100.749V19.1396H104.343V20.3457H100.749V22.2939H104.748V23.5H99.3037ZM112.629 23.5H111.056L110.431 21.874H107.57L106.979 23.5H105.446L108.234 16.3418H109.763L112.629 23.5ZM109.968 20.668L108.981 18.0117L108.014 20.668H109.968ZM113.615 23.5V16.3418H115.021L117.951 21.1221V16.3418H119.294V23.5H117.843L114.958 18.832V23.5H113.615ZM124 16.3418H125.446V20.2188C125.446 20.834 125.463 21.2327 125.499 21.415C125.561 21.708 125.708 21.944 125.939 22.123C126.173 22.2988 126.492 22.3867 126.896 22.3867C127.306 22.3867 127.615 22.3037 127.823 22.1377C128.032 21.9684 128.157 21.7617 128.199 21.5176C128.242 21.2734 128.263 20.8682 128.263 20.3018V16.3418H129.708V20.1016C129.708 20.9609 129.669 21.568 129.591 21.9229C129.513 22.2777 129.368 22.5771 129.156 22.8213C128.948 23.0654 128.668 23.2607 128.317 23.4072C127.965 23.5505 127.506 23.6221 126.94 23.6221C126.256 23.6221 125.737 23.5439 125.382 23.3877C125.03 23.2282 124.752 23.0231 124.547 22.7725C124.342 22.5186 124.207 22.2533 124.142 21.9766C124.047 21.5664 124 20.9609 124 20.1602V16.3418ZM131.451 23.5V16.3418H132.857L135.787 21.1221V16.3418H137.13V23.5H135.68L132.794 18.832V23.5H131.451ZM138.819 23.5V16.3418H140.264V23.5H138.819ZM141.553 19.9648C141.553 19.2357 141.662 18.6237 141.88 18.1289C142.043 17.7643 142.265 17.4372 142.545 17.1475C142.828 16.8577 143.137 16.6429 143.472 16.5029C143.918 16.3141 144.433 16.2197 145.015 16.2197C146.07 16.2197 146.913 16.5469 147.545 17.2012C148.179 17.8555 148.497 18.7653 148.497 19.9307C148.497 21.0863 148.183 21.9912 147.554 22.6455C146.926 23.2965 146.086 23.6221 145.035 23.6221C143.97 23.6221 143.124 23.2982 142.496 22.6504C141.867 21.9993 141.553 21.1042 141.553 19.9648ZM143.043 19.916C143.043 20.7266 143.23 21.3418 143.604 21.7617C143.978 22.1784 144.454 22.3867 145.03 22.3867C145.606 22.3867 146.078 22.18 146.446 21.7666C146.817 21.3499 147.003 20.7266 147.003 19.8965C147.003 19.0762 146.822 18.4642 146.461 18.0605C146.102 17.6569 145.626 17.4551 145.03 17.4551C144.434 17.4551 143.954 17.6602 143.589 18.0703C143.225 18.4772 143.043 19.0924 143.043 19.916ZM149.844 23.5V16.3418H151.25L154.18 21.1221V16.3418H155.523V23.5H154.073L151.187 18.832V23.5H149.844Z" fill="white"/>
<path d="M181 17.9785C181 27.9048 188.97 35.9571 198.793 35.9571C201.635 35.9571 204.292 35.2981 206.681 34.1036C206.681 34.1036 206.722 34.083 206.701 34.0419C206.681 34.0007 206.64 34.0213 206.64 34.0213C204.807 34.742 202.85 35.1333 200.77 35.1333C191.812 35.1333 184.563 27.7813 184.563 18.7199C184.563 9.65858 191.812 2.30653 200.77 2.30653C207.113 2.30653 212.612 5.97225 215.268 11.3679C215.268 11.3679 215.289 11.4091 215.33 11.4091C215.371 11.3885 215.351 11.3473 215.351 11.3473C212.735 4.67483 206.31 0 198.793 0C188.97 0 181 8.05225 181 17.9785Z" fill="white"/>
<path d="M249.248 21.4589C249.084 21.047 248.837 20.6969 248.548 20.4086C248.26 20.0997 247.91 19.8732 247.519 19.6878C247.127 19.5231 246.715 19.4201 246.283 19.4201C245.85 19.4201 245.439 19.5231 245.027 19.7084C244.635 19.8938 244.285 20.1409 243.997 20.4498C243.853 20.6146 243.709 20.7793 243.585 20.9647C243.585 20.9853 243.585 21.0059 243.585 21.0265C243.585 23.2506 245.377 25.0423 247.601 25.0423C248.281 25.0423 248.94 24.8775 249.516 24.5686V22.7563C249.516 22.3033 249.413 21.8708 249.248 21.4589Z" fill="#FABC20"/>
<path d="M201.059 27.9048C200.523 27.6783 200.07 27.3694 199.679 26.9575C199.287 26.5456 198.979 26.0926 198.752 25.5365C198.525 25.0011 198.423 24.4245 198.423 23.8272C198.423 23.23 198.525 22.6534 198.752 22.0973C198.979 21.5619 199.287 21.0882 199.679 20.6764C200.07 20.2645 200.544 19.9556 201.059 19.729C201.594 19.5025 202.15 19.3789 202.747 19.3789C203.344 19.3789 203.901 19.5025 204.436 19.729C204.971 19.9556 205.424 20.2851 205.816 20.6764C206.207 21.0882 206.516 21.5619 206.742 22.0973C206.969 22.6328 207.072 23.2094 207.072 23.8272C207.072 24.4245 206.969 25.0011 206.742 25.5365C206.516 26.072 206.207 26.5456 205.816 26.9575C205.424 27.3694 204.951 27.6783 204.436 27.9048C203.901 28.1314 203.344 28.2549 202.747 28.2549C202.15 28.2549 201.594 28.152 201.059 27.9048ZM200.482 18.3492C199.782 18.6581 199.164 19.0906 198.628 19.6261C198.093 20.1615 197.681 20.7999 197.372 21.5207C197.063 22.2415 196.919 23.0035 196.919 23.8272C196.919 24.651 197.063 25.413 197.372 26.1338C197.681 26.8546 198.093 27.493 198.628 28.0284C199.164 28.5639 199.761 28.9963 200.482 29.3052C201.182 29.6141 201.944 29.7789 202.747 29.7789C203.55 29.7789 204.312 29.6141 205.013 29.3052C205.713 28.9963 206.331 28.5639 206.866 28.0284C207.401 27.493 207.813 26.8546 208.102 26.1338C208.411 25.413 208.555 24.6304 208.555 23.8272C208.555 23.0035 208.411 22.2415 208.102 21.5207C207.793 20.7999 207.381 20.1615 206.866 19.6261C206.331 19.0906 205.713 18.6581 205.013 18.3492C204.312 18.0403 203.55 17.8756 202.747 17.8756C201.944 17.8756 201.182 18.0197 200.482 18.3492Z" fill="white"/>
<path d="M213.683 27.946C213.147 27.7195 212.694 27.39 212.303 26.9987C211.912 26.5868 211.603 26.1132 211.376 25.5777C211.15 25.0423 211.047 24.4656 211.047 23.8478C211.047 23.2506 211.15 22.674 211.376 22.1179C211.603 21.5825 211.912 21.1088 212.303 20.6969C212.694 20.2851 213.147 19.9762 213.683 19.7496C214.218 19.5231 214.774 19.3995 215.371 19.3995C215.969 19.3995 216.525 19.5231 217.06 19.7496C217.596 19.9762 218.049 20.3057 218.44 20.6969C218.831 21.1088 219.14 21.5825 219.367 22.1179C219.593 22.6534 219.696 23.23 219.696 23.8478C219.696 24.4451 219.593 25.0217 219.367 25.5777C219.14 26.1132 218.831 26.5868 218.44 26.9987C218.049 27.4106 217.575 27.7195 217.06 27.946C216.525 28.1726 215.969 28.2961 215.371 28.2961C214.774 28.2755 214.197 28.1726 213.683 27.946ZM213.106 18.3698C212.406 18.6787 211.788 19.1112 211.253 19.6467C210.717 20.1821 210.305 20.8205 210.017 21.5413C209.708 22.2621 209.564 23.0241 209.564 23.8478V33.6094H211.047V27.493C211.438 28.152 212.056 28.6874 212.9 29.1199C213.744 29.5524 214.568 29.7789 215.371 29.7789C216.175 29.7789 216.916 29.6347 217.637 29.3258C218.337 29.0169 218.955 28.5844 219.49 28.049C220.005 27.5136 220.437 26.8751 220.726 26.1544C221.035 25.4336 221.179 24.6716 221.179 23.8478C221.179 23.0241 221.035 22.2621 220.726 21.5413C220.417 20.8205 220.005 20.1821 219.49 19.6467C218.955 19.1112 218.337 18.6787 217.637 18.3698C216.936 18.0609 216.175 17.8962 215.371 17.8962C214.548 17.8962 213.806 18.0609 213.106 18.3698Z" fill="white"/>
<path d="M224.845 20.6969C225.236 20.2851 225.689 19.9762 226.224 19.7496C226.76 19.5231 227.316 19.3995 227.913 19.3995C228.51 19.3995 229.066 19.5231 229.581 19.7496C230.117 19.9762 230.57 20.3057 230.961 20.6969C231.291 21.047 231.558 21.4383 231.764 21.8708H224.021C224.227 21.4177 224.515 21.0265 224.845 20.6969ZM225.648 18.3492C224.948 18.6581 224.33 19.0906 223.794 19.6261C223.259 20.1615 222.847 20.7999 222.538 21.5207C222.229 22.2415 222.085 23.0035 222.085 23.8272C222.085 24.651 222.229 25.413 222.538 26.1338C222.847 26.8546 223.259 27.493 223.794 28.0284C224.33 28.5639 224.948 28.9963 225.648 29.3052C226.348 29.6141 227.11 29.7789 227.913 29.7789C228.716 29.7789 229.478 29.6141 230.178 29.3052C230.879 28.9963 231.496 28.5639 232.032 28.0284C232.567 27.493 232.979 26.8546 233.268 26.1338L233.329 25.969H231.702C231.496 26.3397 231.27 26.6692 230.982 26.9575C230.59 27.3694 230.117 27.6783 229.602 27.9048C229.087 28.1314 228.51 28.2549 227.934 28.2549C227.336 28.2549 226.78 28.1314 226.245 27.9048C225.71 27.6783 225.256 27.3694 224.865 26.9575C224.474 26.5456 224.165 26.0926 223.938 25.5365C223.712 25.0011 223.588 24.4245 223.588 23.8272C223.588 23.6831 223.588 23.5389 223.609 23.3742H233.7C233.659 22.7358 233.515 22.0973 233.247 21.5207C232.959 20.7999 232.547 20.1615 232.011 19.6261C231.476 19.0906 230.858 18.6581 230.158 18.3492C229.458 18.0403 228.696 17.8756 227.892 17.8756C227.11 17.8756 226.348 18.0197 225.648 18.3492Z" fill="white"/>
<path d="M238.354 18.8641C237.654 19.173 237.036 19.6055 236.501 20.1409C236.418 20.2233 236.336 20.3469 236.274 20.491V18.4316H234.812L234.833 29.2435H236.295V24.3421C236.295 23.7449 236.398 23.1682 236.624 22.6328C236.851 22.0973 237.16 21.6237 237.551 21.2118C237.942 20.7999 238.416 20.491 238.931 20.2645C239.466 20.0379 240.022 19.9144 240.62 19.9144V18.3904C239.796 18.3904 239.054 18.5552 238.354 18.8641Z" fill="white"/>
<path d="M245.294 17.9785C244.965 18.0403 244.656 18.1639 244.368 18.2875C244.079 18.4316 243.812 18.5964 243.585 18.7817C243.338 18.9671 243.153 19.1936 243.008 19.4201V18.4316H241.546V29.2435H243.05L243.029 22.7563C243.029 22.3445 243.111 21.9326 243.297 21.5207C243.482 21.1088 243.709 20.7587 243.997 20.4498C244.285 20.1409 244.635 19.8938 245.027 19.7084C245.418 19.5231 245.83 19.4201 246.283 19.4201C246.715 19.4201 247.127 19.5025 247.519 19.6673C247.91 19.8526 248.26 20.0791 248.548 20.388C248.837 20.697 249.084 21.047 249.248 21.4383C249.413 21.8502 249.496 22.2827 249.496 22.7358L249.516 29.2229H251.04L251.02 22.7358C251.02 22.0767 250.896 21.4383 250.628 20.8411C250.381 20.2439 250.031 19.729 249.599 19.276C249.166 18.8435 248.672 18.4934 248.095 18.2257C247.519 17.958 246.901 17.8344 246.262 17.8344C245.953 17.8756 245.624 17.9168 245.294 17.9785Z" fill="white"/>
<path d="M252.564 29.2435H254.047V18.4316H252.564V29.2435ZM252.688 14.3746C252.523 14.5394 252.441 14.7659 252.441 15.013C252.441 15.2601 252.523 15.4867 252.688 15.672C252.852 15.8368 253.079 15.9397 253.326 15.9397C253.573 15.9397 253.8 15.8574 253.964 15.672C254.129 15.4867 254.212 15.2807 254.212 15.013C254.212 14.7453 254.129 14.5394 253.964 14.3746C253.8 14.1893 253.594 14.1069 253.326 14.1069C253.058 14.1069 252.852 14.1893 252.688 14.3746Z" fill="white"/>
<path d="M258.742 18.3492C258.042 18.6581 257.424 19.0906 256.889 19.6261C256.353 20.1615 255.941 20.7999 255.633 21.5207C255.324 22.2415 255.18 23.0035 255.18 23.8272C255.18 24.651 255.324 25.413 255.633 26.1338C255.941 26.8546 256.353 27.493 256.889 28.0284C257.424 28.5639 258.042 28.9963 258.742 29.3052C259.442 29.6141 260.204 29.7789 261.008 29.7789C261.811 29.7789 262.552 29.6141 263.273 29.3052C263.973 28.9963 264.591 28.5639 265.126 28.0284C265.662 27.493 266.074 26.8546 266.362 26.1338L266.424 25.969H264.797C264.591 26.3397 264.364 26.6692 264.076 26.9575C263.685 27.3694 263.232 27.6783 262.696 27.9048C262.161 28.1314 261.605 28.2549 261.028 28.2549C260.431 28.2549 259.875 28.1314 259.34 27.9048C258.825 27.6783 258.351 27.3694 257.96 26.9575C257.568 26.5456 257.26 26.0926 257.033 25.5365C256.806 25.0011 256.703 24.4245 256.703 23.8272C256.703 23.23 256.806 22.6534 257.033 22.0973C257.26 21.5619 257.568 21.0882 257.96 20.6764C258.351 20.2645 258.825 19.9556 259.34 19.729C259.875 19.5025 260.431 19.3789 261.028 19.3789C261.625 19.3789 262.181 19.5025 262.696 19.729C263.232 19.9556 263.685 20.2851 264.076 20.6764C264.364 20.9647 264.591 21.2942 264.776 21.6443H266.424L266.362 21.5001C266.074 20.7793 265.662 20.1409 265.126 19.6055C264.591 19.07 263.973 18.6376 263.273 18.3286C262.573 18.0197 261.811 17.855 261.008 17.855C260.204 17.8756 259.442 18.0197 258.742 18.3492Z" fill="white"/>
<path d="M275.3 18.4316V24.3833C275.3 24.8363 275.217 25.2688 275.053 25.6807C274.888 26.0926 274.661 26.4427 274.353 26.731C274.064 27.0193 273.714 27.2664 273.323 27.4312C272.932 27.5959 272.499 27.6989 272.046 27.6989C271.593 27.6989 271.181 27.6165 270.79 27.4312C270.398 27.2458 270.069 27.0193 269.76 26.731C269.451 26.4427 269.225 26.0926 269.06 25.6807C268.895 25.2688 268.813 24.8363 268.813 24.3833V24.3627L268.792 18.4316H267.289L267.309 24.3627V24.3833C267.309 25.0423 267.433 25.6807 267.701 26.2779C267.948 26.8751 268.298 27.39 268.73 27.8225C269.163 28.2549 269.657 28.605 270.234 28.8728C270.81 29.1405 271.428 29.264 272.067 29.264C272.705 29.264 273.323 29.1405 273.899 28.8728C274.476 28.6256 274.97 28.2755 275.403 27.8225C275.835 27.39 276.165 26.8751 276.412 26.2779C276.659 25.6807 276.783 25.0629 276.783 24.3833V18.4316H275.3Z" fill="white"/>
<path d="M280.304 18.1639C279.831 18.3492 279.439 18.617 279.11 18.9259C278.78 19.2348 278.512 19.5849 278.348 19.9968C278.162 20.4086 278.101 20.8411 278.162 21.3148C278.245 21.912 278.43 22.4268 278.78 22.8181C279.11 23.23 279.522 23.5183 279.975 23.7243C280.428 23.9302 280.943 24.095 281.499 24.2391C282.055 24.3833 282.508 24.548 282.878 24.7128C283.249 24.8775 283.517 25.1041 283.723 25.3718C283.908 25.6395 283.99 26.0308 283.99 26.525C283.97 26.9987 283.785 27.4106 283.434 27.7401C283.084 28.0696 282.57 28.2549 281.869 28.2549C281.251 28.2755 280.757 28.152 280.366 27.8842C279.975 27.6165 279.707 27.3282 279.563 27.0193C279.419 26.6898 279.336 26.3397 279.336 25.969H277.853C277.833 26.5868 277.936 27.1223 278.162 27.5753C278.389 28.0284 278.677 28.4197 279.027 28.7492C279.398 29.0787 279.81 29.3258 280.304 29.5112C280.778 29.6965 281.272 29.7789 281.766 29.7789C282.261 29.7789 282.734 29.6965 283.187 29.573C283.64 29.4288 284.052 29.2229 284.382 28.9345C284.732 28.6668 285 28.3167 285.206 27.9048C285.411 27.493 285.514 27.0605 285.514 26.5456C285.514 25.866 285.391 25.31 285.123 24.8569C284.876 24.4039 284.505 24.0332 284.052 23.7449C283.599 23.4565 283.105 23.2094 282.59 23.0447C282.075 22.8799 281.602 22.7152 281.169 22.5504C280.737 22.3857 280.387 22.2209 280.139 22.0356C279.872 21.8502 279.707 21.5825 279.645 21.2324C279.583 20.8411 279.686 20.4704 279.954 20.1203C280.222 19.7702 280.531 19.5437 280.86 19.4407C281.19 19.3172 281.478 19.276 281.766 19.276C282.199 19.276 282.57 19.3789 282.94 19.6055C283.29 19.832 283.537 20.1409 283.661 20.5734H285.247C285.226 20.3469 285.123 20.0997 284.958 19.7908C284.794 19.4819 284.567 19.1936 284.299 18.9053C284.011 18.617 283.661 18.3698 283.249 18.1845C282.837 17.9991 282.343 17.8962 281.787 17.8962C281.231 17.8756 280.757 17.9785 280.304 18.1639Z" fill="white"/>
<path d="M241.031 32.4784H243.207C243.698 32.4784 244.072 32.5159 244.329 32.591C244.675 32.6929 244.971 32.8739 245.218 33.134C245.465 33.3941 245.652 33.7132 245.781 34.0913C245.91 34.4667 245.974 34.9306 245.974 35.483C245.974 35.9684 245.914 36.3867 245.793 36.7379C245.646 37.167 245.435 37.5142 245.162 37.7797C244.955 37.9808 244.676 38.1377 244.325 38.2503C244.062 38.3334 243.711 38.375 243.271 38.375H241.031V32.4784ZM242.221 33.4759V37.3815H243.11C243.443 37.3815 243.683 37.3627 243.83 37.3252C244.023 37.2769 244.183 37.1951 244.309 37.0798C244.438 36.9645 244.542 36.7755 244.623 36.5127C244.703 36.2472 244.743 35.8866 244.743 35.4307C244.743 34.9749 244.703 34.6249 244.623 34.3809C244.542 34.1369 244.43 33.9465 244.285 33.8097C244.14 33.673 243.956 33.5805 243.734 33.5322C243.568 33.4947 243.242 33.4759 242.756 33.4759H242.221Z" fill="white"/>
<path d="M247.825 35.4066L246.799 35.2216C246.914 34.8086 247.113 34.5029 247.394 34.3045C247.676 34.106 248.094 34.0068 248.649 34.0068C249.153 34.0068 249.529 34.0672 249.775 34.1878C250.022 34.3058 250.195 34.4573 250.294 34.6423C250.396 34.8247 250.447 35.1612 250.447 35.6519L250.435 36.9712C250.435 37.3466 250.452 37.6242 250.487 37.8038C250.525 37.9808 250.593 38.1712 250.692 38.375H249.574C249.545 38.2999 249.508 38.1886 249.466 38.0412C249.447 37.9741 249.433 37.9299 249.425 37.9084C249.232 38.0961 249.026 38.2369 248.806 38.3308C248.586 38.4246 248.351 38.4715 248.102 38.4715C247.662 38.4715 247.315 38.3522 247.06 38.1136C246.808 37.8749 246.682 37.5732 246.682 37.2085C246.682 36.9672 246.74 36.7527 246.855 36.565C246.97 36.3746 247.131 36.2298 247.338 36.1306C247.547 36.0287 247.847 35.9402 248.239 35.8651C248.767 35.7659 249.133 35.6734 249.337 35.5876V35.475C249.337 35.2578 249.283 35.1036 249.176 35.0124C249.069 34.9185 248.866 34.8716 248.569 34.8716C248.368 34.8716 248.211 34.9118 248.098 34.9923C247.985 35.07 247.894 35.2081 247.825 35.4066ZM249.337 36.3237C249.192 36.3719 248.963 36.4296 248.649 36.4966C248.335 36.5636 248.13 36.6293 248.034 36.6937C247.886 36.7983 247.812 36.931 247.812 37.0919C247.812 37.2501 247.871 37.3869 247.989 37.5022C248.107 37.6175 248.258 37.6751 248.44 37.6751C248.644 37.6751 248.838 37.6081 249.023 37.474C249.16 37.3721 249.25 37.2474 249.293 37.0999C249.322 37.0034 249.337 36.8197 249.337 36.5489V36.3237Z" fill="white"/>
<path d="M253.524 34.1034V35.0044H252.752V36.7259C252.752 37.0745 252.758 37.2783 252.772 37.3373C252.788 37.3936 252.821 37.4405 252.872 37.478C252.926 37.5156 252.99 37.5344 253.066 37.5344C253.17 37.5344 253.322 37.4982 253.52 37.4258L253.617 38.3026C253.354 38.4152 253.056 38.4715 252.724 38.4715C252.52 38.4715 252.336 38.438 252.173 38.371C252.009 38.3013 251.888 38.2128 251.811 38.1055C251.735 37.9956 251.683 37.8481 251.654 37.6631C251.63 37.5317 251.617 37.2662 251.617 36.8667V35.0044H251.099V34.1034H251.617V33.2547L252.752 32.595V34.1034H253.524Z" fill="white"/>
<path d="M255.153 35.4066L254.127 35.2216C254.243 34.8086 254.441 34.5029 254.723 34.3045C255.004 34.106 255.423 34.0068 255.978 34.0068C256.482 34.0068 256.857 34.0672 257.104 34.1878C257.351 34.3058 257.524 34.4573 257.623 34.6423C257.725 34.8247 257.776 35.1612 257.776 35.6519L257.764 36.9712C257.764 37.3466 257.781 37.6242 257.816 37.8038C257.853 37.9808 257.922 38.1712 258.021 38.375H256.903C256.873 38.2999 256.837 38.1886 256.794 38.0412C256.775 37.9741 256.762 37.9299 256.754 37.9084C256.561 38.0961 256.354 38.2369 256.134 38.3308C255.915 38.4246 255.68 38.4715 255.431 38.4715C254.991 38.4715 254.644 38.3522 254.389 38.1136C254.137 37.8749 254.011 37.5732 254.011 37.2085C254.011 36.9672 254.068 36.7527 254.184 36.565C254.299 36.3746 254.46 36.2298 254.666 36.1306C254.876 36.0287 255.176 35.9402 255.567 35.8651C256.096 35.7659 256.462 35.6734 256.665 35.5876V35.475C256.665 35.2578 256.612 35.1036 256.505 35.0124C256.397 34.9185 256.195 34.8716 255.897 34.8716C255.696 34.8716 255.539 34.9118 255.427 34.9923C255.314 35.07 255.223 35.2081 255.153 35.4066ZM256.665 36.3237C256.521 36.3719 256.291 36.4296 255.978 36.4966C255.664 36.5636 255.459 36.6293 255.362 36.6937C255.215 36.7983 255.141 36.931 255.141 37.0919C255.141 37.2501 255.2 37.3869 255.318 37.5022C255.436 37.6175 255.586 37.6751 255.768 37.6751C255.972 37.6751 256.167 37.6081 256.352 37.474C256.488 37.3721 256.578 37.2474 256.621 37.0999C256.651 37.0034 256.665 36.8197 256.665 36.5489V36.3237Z" fill="white"/>
<path d="M260.893 36.4564L262.051 36.3438C262.121 36.7326 262.262 37.0182 262.474 37.2005C262.688 37.3829 262.976 37.474 263.338 37.474C263.722 37.474 264.01 37.3936 264.203 37.2327C264.399 37.0691 264.497 36.8787 264.497 36.6615C264.497 36.5221 264.455 36.4041 264.372 36.3076C264.292 36.2083 264.15 36.1225 263.946 36.0501C263.806 36.0019 263.489 35.9161 262.992 35.7927C262.354 35.6345 261.906 35.4401 261.649 35.2095C261.287 34.885 261.106 34.4895 261.106 34.0229C261.106 33.7226 261.19 33.4424 261.359 33.1823C261.531 32.9195 261.776 32.7197 262.095 32.583C262.417 32.4462 262.805 32.3778 263.258 32.3778C263.998 32.3778 264.554 32.54 264.927 32.8645C265.303 33.189 265.5 33.622 265.518 34.1637L264.328 34.216C264.277 33.913 264.167 33.6958 263.998 33.5644C263.832 33.4303 263.581 33.3633 263.246 33.3633C262.9 33.3633 262.629 33.4343 262.433 33.5765C262.307 33.6676 262.244 33.7896 262.244 33.9425C262.244 34.0819 262.303 34.2012 262.421 34.3005C262.571 34.4265 262.936 34.5579 263.515 34.6946C264.095 34.8314 264.522 34.9735 264.798 35.121C265.077 35.2658 265.295 35.4656 265.45 35.7203C265.608 35.9724 265.687 36.2848 265.687 36.6575C265.687 36.9954 265.594 37.3118 265.406 37.6068C265.218 37.9017 264.953 38.1216 264.609 38.2664C264.266 38.4085 263.838 38.4796 263.326 38.4796C262.581 38.4796 262.008 38.308 261.609 37.9647C261.209 37.6188 260.971 37.116 260.893 36.4564Z" fill="white"/>
<path d="M266.649 34.1034H267.703V34.7308C267.839 34.5163 268.024 34.342 268.258 34.2079C268.491 34.0739 268.75 34.0068 269.034 34.0068C269.53 34.0068 269.951 34.2012 270.297 34.5901C270.643 34.9789 270.816 35.5205 270.816 36.2151C270.816 36.9283 270.641 37.4834 270.293 37.8803C269.944 38.2744 269.522 38.4715 269.026 38.4715C268.79 38.4715 268.575 38.4246 268.382 38.3308C268.192 38.2369 267.991 38.076 267.779 37.8481V40H266.649V34.1034ZM267.767 36.1668C267.767 36.6468 267.862 37.0021 268.052 37.2327C268.243 37.4606 268.475 37.5746 268.748 37.5746C269.011 37.5746 269.23 37.47 269.404 37.2608C269.578 37.049 269.665 36.7031 269.665 36.2231C269.665 35.7753 269.576 35.4428 269.396 35.2256C269.216 35.0084 268.994 34.8998 268.728 34.8998C268.452 34.8998 268.223 35.007 268.04 35.2216C267.858 35.4334 267.767 35.7485 267.767 36.1668Z" fill="white"/>
<path d="M272.561 35.4066L271.536 35.2216C271.651 34.8086 271.849 34.5029 272.131 34.3045C272.413 34.106 272.831 34.0068 273.386 34.0068C273.89 34.0068 274.266 34.0672 274.512 34.1878C274.759 34.3058 274.932 34.4573 275.031 34.6423C275.133 34.8247 275.184 35.1612 275.184 35.6519L275.172 36.9712C275.172 37.3466 275.189 37.6242 275.224 37.8038C275.262 37.9808 275.33 38.1712 275.429 38.375H274.311C274.282 38.2999 274.245 38.1886 274.202 38.0412C274.184 37.9741 274.17 37.9299 274.162 37.9084C273.969 38.0961 273.763 38.2369 273.543 38.3308C273.323 38.4246 273.088 38.4715 272.839 38.4715C272.399 38.4715 272.052 38.3522 271.797 38.1136C271.545 37.8749 271.419 37.5732 271.419 37.2085C271.419 36.9672 271.477 36.7527 271.592 36.565C271.707 36.3746 271.868 36.2298 272.075 36.1306C272.284 36.0287 272.584 35.9402 272.976 35.8651C273.504 35.7659 273.87 35.6734 274.074 35.5876V35.475C274.074 35.2578 274.02 35.1036 273.913 35.0124C273.806 34.9185 273.603 34.8716 273.306 34.8716C273.104 34.8716 272.948 34.9118 272.835 34.9923C272.722 35.07 272.631 35.2081 272.561 35.4066ZM274.074 36.3237C273.929 36.3719 273.7 36.4296 273.386 36.4966C273.072 36.5636 272.867 36.6293 272.771 36.6937C272.623 36.7983 272.549 36.931 272.549 37.0919C272.549 37.2501 272.608 37.3869 272.726 37.5022C272.844 37.6175 272.994 37.6751 273.177 37.6751C273.381 37.6751 273.575 37.6081 273.76 37.474C273.897 37.3721 273.987 37.2474 274.03 37.0999C274.059 37.0034 274.074 36.8197 274.074 36.5489V36.3237Z" fill="white"/>
<path d="M280.027 35.3664L278.913 35.5675C278.875 35.3449 278.789 35.1773 278.655 35.0647C278.524 34.9521 278.352 34.8957 278.14 34.8957C277.859 34.8957 277.633 34.9936 277.465 35.1894C277.298 35.3824 277.215 35.7069 277.215 36.1628C277.215 36.6696 277.3 37.0275 277.469 37.2367C277.64 37.4459 277.869 37.5504 278.156 37.5504C278.371 37.5504 278.547 37.4901 278.683 37.3694C278.82 37.2461 278.917 37.0356 278.973 36.7379L280.083 36.927C279.968 37.4365 279.747 37.8213 279.419 38.0814C279.092 38.3415 278.654 38.4715 278.104 38.4715C277.479 38.4715 276.981 38.2744 276.608 37.8803C276.238 37.4861 276.053 36.9404 276.053 36.2432C276.053 35.538 276.239 34.9896 276.612 34.5981C276.985 34.2039 277.489 34.0068 278.124 34.0068C278.644 34.0068 279.057 34.1195 279.363 34.3447C279.671 34.5673 279.893 34.9078 280.027 35.3664Z" fill="white"/>
<path d="M283.361 37.0155L284.487 37.2045C284.343 37.6175 284.113 37.9326 283.8 38.1498C283.489 38.3643 283.098 38.4715 282.629 38.4715C281.886 38.4715 281.337 38.2289 280.98 37.7435C280.698 37.3547 280.558 36.864 280.558 36.2714C280.558 35.5634 280.743 35.0097 281.113 34.6102C281.483 34.2079 281.951 34.0068 282.517 34.0068C283.152 34.0068 283.653 34.2173 284.021 34.6383C284.388 35.0566 284.564 35.6989 284.548 36.565H281.716C281.724 36.9002 281.815 37.1616 281.99 37.3493C282.164 37.5344 282.381 37.6269 282.641 37.6269C282.818 37.6269 282.967 37.5786 283.088 37.4821C283.208 37.3855 283.3 37.23 283.361 37.0155ZM283.426 35.8732C283.417 35.546 283.333 35.298 283.172 35.129C283.011 34.9574 282.815 34.8716 282.585 34.8716C282.338 34.8716 282.134 34.9614 281.974 35.1411C281.813 35.3208 281.734 35.5648 281.736 35.8732H283.426Z" fill="white"/>
<g clip-path="url(#clip1_135_2397)">
<path d="M356.457 18.5349C355.458 18.3502 354.312 18.3131 353.721 17.6484C353.605 17.4903 353.534 17.3041 353.514 17.1091C353.494 16.9141 353.527 16.7174 353.609 16.5393C353.861 16.1582 354.22 15.8601 354.641 15.6824C355.062 15.5046 355.527 15.4551 355.976 15.54C356.381 15.5278 356.782 15.6329 357.13 15.8428C357.477 16.0527 357.757 16.3584 357.935 16.7233C358.065 17.0283 358.14 17.3541 358.157 17.6855H360.894C360.918 16.6223 360.533 15.5904 359.818 14.8033C359.097 14.1769 358.244 13.7217 357.322 13.472C356.4 13.2222 355.434 13.1843 354.496 13.3611C353.164 13.5459 351.389 14.3219 350.797 16.0608C350.543 16.7318 350.503 17.4648 350.682 18.1595C350.861 18.8542 351.249 19.4768 351.795 19.9422C353.053 20.9044 355.418 21.1633 356.381 21.3859C357.489 21.604 358.045 21.7553 358.229 22.3829C358.292 22.5868 358.309 22.8025 358.278 23.0139C358.247 23.2252 358.168 23.4267 358.048 23.6033C357.344 24.5269 355.903 24.6019 354.756 24.2688C353.794 23.9742 353.387 23.196 353.203 22.1597H350.32C350.328 23.0214 350.599 23.8602 351.096 24.564C351.473 25.1328 351.969 25.6127 352.55 25.9702C353.131 26.3278 353.783 26.5545 354.461 26.6346C356.03 26.9473 357.658 26.7658 359.12 26.1153C359.707 25.7595 360.221 25.2953 360.635 24.7473C361.051 24.13 361.288 23.4099 361.321 22.6663C361.353 21.9227 361.18 21.1847 360.819 20.5335C360.006 19.1269 358.158 18.8309 356.457 18.5349Z" fill="white"/>
<path d="M346.917 15.0971C346.246 14.3844 345.408 13.8493 344.479 13.5394C343.55 13.2295 342.559 13.1545 341.594 13.3211C340.744 13.4548 339.935 13.7765 339.225 14.2628C338.515 14.7491 337.922 15.3877 337.49 16.132C337.012 16.9809 336.686 17.9072 336.528 18.8687C336.232 21.1232 336.861 24.8949 340.819 26.3742C341.806 26.7278 342.864 26.8352 343.901 26.6871C344.938 26.5389 345.924 26.1396 346.772 25.524C347.846 24.6572 348.579 23.4388 348.842 22.084H345.55C345.411 22.6738 345.071 23.1968 344.589 23.5632C344.06 23.9058 343.438 24.0757 342.809 24.0497C342.18 24.0236 341.574 23.8028 341.076 23.4178C340.077 22.6782 339.746 21.4592 339.708 19.7203C339.708 18.7967 339.967 17.3203 340.743 16.6149C341.135 16.281 341.605 16.0517 342.109 15.9482C342.614 15.8447 343.136 15.8704 343.628 16.0229C344.163 16.2091 344.627 16.5594 344.952 17.0239C345.277 17.4884 345.448 18.0436 345.44 18.6105H340.78V20.9378H348.843C348.883 20.1179 348.809 19.2963 348.621 18.4971C348.313 17.2513 347.731 16.0899 346.917 15.0971Z" fill="white"/>
<path d="M374.218 23.1836V19.1902C374.227 18.1737 374.14 17.1586 373.96 16.1582C373.738 15.1967 372.887 13.6069 370.151 13.2738C369.642 13.2374 369.097 13.2374 368.551 13.2374H368.527C367.628 13.26 366.739 13.4217 365.89 13.7167C365.134 14.0471 364.496 14.5985 364.061 15.2983C363.625 15.9982 363.411 16.8137 363.447 17.6374H366.405C366.387 17.2496 366.487 16.8654 366.691 16.5355C366.896 16.2056 367.196 15.9455 367.551 15.7894C367.869 15.663 368.208 15.5991 368.549 15.6011C368.903 15.5715 369.259 15.6119 369.598 15.7201C369.936 15.8283 370.249 16.0021 370.52 16.2316C370.682 16.3929 370.798 16.5941 370.857 16.8149C370.916 17.0356 370.915 17.268 370.855 17.4883C370.669 18.2651 369.819 18.5232 368.527 18.7087V18.7123C368.091 18.7851 367.582 18.8207 367.039 18.8934C365.486 19.0782 363.267 19.8549 362.748 22.1102C362.623 22.7722 362.681 23.4558 362.915 24.0875C363.15 24.7192 363.552 25.2751 364.078 25.6956C365.014 26.3677 366.143 26.7183 367.295 26.6949C367.717 26.6977 368.138 26.6605 368.553 26.5836V26.5771C369.513 26.3506 370.404 25.896 371.151 25.252C371.223 25.625 371.348 25.986 371.52 26.3247H374.628C374.268 25.3191 374.128 24.2479 374.218 23.1836ZM370.89 22.7036C370.678 23.1527 370.343 23.533 369.925 23.8009C369.507 24.0688 369.021 24.2135 368.525 24.2185V24.2229C368.29 24.2699 368.05 24.2807 367.812 24.2549C367.481 24.2704 367.153 24.1919 366.865 24.0284C366.577 23.8649 366.341 23.6232 366.185 23.3312C366.074 23.1042 366.023 22.853 366.036 22.6008C366.049 22.3486 366.125 22.1038 366.258 21.8891C366.701 21.1131 367.478 20.9654 368.551 20.7436V20.74C368.916 20.6941 369.278 20.6212 369.633 20.5218C370.149 20.4407 370.633 20.2238 371.037 19.8934C371.078 20.8325 371.029 21.7732 370.89 22.7029V22.7036Z" fill="white"/>
<path d="M325.832 27.0556C320.592 25.2469 319.622 20.3989 320.929 17.0047C321.276 16.1712 321.805 15.4253 322.475 14.8209C323.146 14.2166 323.943 13.7688 324.808 13.5101C325.674 13.2513 326.585 13.188 327.478 13.3248C328.371 13.4615 329.222 13.7948 329.97 14.3007C333.141 16.5749 332.806 20.9378 332.806 20.9378H324.676V18.6105H329.393C329.421 18.2853 329.376 17.9579 329.263 17.6517C329.15 17.3455 328.971 17.068 328.738 16.8389C328.304 16.3572 327.718 16.0376 327.078 15.9326C326.437 15.8277 325.78 15.9436 325.215 16.2614C324.3 16.7458 323.127 18.7596 323.816 21.6491C324.471 23.8433 326.526 24.7145 328.376 24.7138C331.132 24.7138 333.218 22.7953 333.222 19.6534C333.225 16.9202 332.267 14.273 330.514 12.1759C328.761 10.0788 326.326 8.66566 323.635 8.18419C320.945 7.70272 318.171 8.18366 315.8 9.54272C313.428 10.9018 311.611 13.0522 310.666 15.617C309.722 18.1817 309.71 20.9972 310.633 23.5697C311.557 26.1422 313.356 28.3076 315.716 29.6862C318.076 31.0648 320.846 31.5687 323.541 31.1096C326.235 30.6504 328.682 29.2574 330.452 27.1749C328.938 27.6267 327.32 27.585 325.832 27.0556ZM315.535 21.1014C315.272 21.1019 315.015 21.0244 314.797 20.8788C314.578 20.7332 314.408 20.5261 314.307 20.2836C314.206 20.0411 314.179 19.7742 314.23 19.5166C314.281 19.259 314.408 19.0223 314.593 18.8364C314.779 18.6506 315.015 18.5239 315.273 18.4726C315.53 18.4212 315.797 18.4473 316.04 18.5477C316.283 18.6481 316.49 18.8182 316.636 19.0365C316.782 19.2549 316.86 19.5116 316.86 19.7742C316.86 20.1258 316.72 20.4631 316.472 20.7119C316.223 20.9608 315.886 21.1009 315.535 21.1014Z" fill="white"/>
</g>
<defs>
<clipPath id="clip0_135_2397">
<rect width="54" height="36" fill="white" transform="translate(0 2)"/>
</clipPath>
<clipPath id="clip1_135_2397">
<rect width="65.25" height="24" fill="white" transform="translate(309.516 8)"/>
</clipPath>
</defs>
</svg>
