<svg xmlns="http://www.w3.org/2000/svg" xmlns:xlink="http://www.w3.org/1999/xlink" width="100.0" height="100.0" viewBox="5.052266697364762 51.21560912099813 0.03475331270342252 0.022138954334202765" preserveAspectRatio="xMinYMin meet"><g transform="matrix(1,0,0,-1,0,102.45335719633047)"><g><path fill-rule="evenodd" fill="#66cc99" stroke="#555555" stroke-width="0.0006950662540684505" opacity="0.6" d="M 5.055945487931457,51.222709834076504 L 5.064972484168688,51.221122565090525 L 5.064972484168688,51.221122565090525 L 5.067474954083448,51.218249806779134 L 5.064827929485983,51.21689628072789 L 5.05917785594747,51.217191909908095 L 5.053553857094518,51.21807492332223 L 5.055945487931457,51.222709834076504 z" /><path fill-rule="evenodd" fill="#66cc99" stroke="#555555" stroke-width="0.0006950662540684505" opacity="0.6" d="M 5.063345886679116,51.23087606640057 L 5.06604742694687,51.22886710731809 L 5.070627820472246,51.22874440121892 L 5.068403609708207,51.22657208381529 L 5.064823257492447,51.22676051738515 L 5.064892324615199,51.2283032878514 L 5.063641745941974,51.2285757299238 L 5.062340811262595,51.227722351687945 L 5.06076005158084,51.228042312276536 L 5.063345886679116,51.23087606640057 z" /><path fill-rule="evenodd" fill="#66cc99" stroke="#555555" stroke-width="0.0006950662540684505" opacity="0.6" d="M 5.07163184674986,51.23481147556147 L 5.076706025697324,51.23317590781036 L 5.077828303041866,51.233226237184724 L 5.078024733866917,51.23263978271262 L 5.080771081607657,51.23259097170763 L 5.083734842574312,51.23530464074437 L 5.080957826735458,51.23646091560258 L 5.079752631651647,51.23519531038643 L 5.077238400183506,51.23490534677628 L 5.072856439300575,51.23593546777778 L 5.07163184674986,51.23481147556147 z" /><path fill-rule="evenodd" fill="#66cc99" stroke="#555555" stroke-width="0.0006950662540684505" opacity="0.6" d="M 5.083897244679042,51.23510639883143 L 5.081302408741335,51.232922477780846 L 5.082963802194108,51.233146058575876 L 5.084497702305552,51.232672717580655 L 5.085732850338428,51.2340852086282 L 5.083897244679042,51.23510639883143 z" /></g></g></svg>