<svg width="155" height="29" viewBox="0 0 155 29" fill="none" xmlns="http://www.w3.org/2000/svg">
<g clip-path="url(#clip0_380_4246)">
<path d="M0.25 28.1468V1.40356H40.6149V28.1468H0.25Z" fill="#003399" stroke="white" stroke-width="0.5"/>
<path d="M20.4121 4.18066L19.9444 5.6201L20.6641 5.85395L20.4121 4.18066Z" fill="#FFCC00"/>
<path d="M20.4121 4.18066L20.8798 5.6201L20.1601 5.85395L20.4121 4.18066Z" fill="#FFCC00"/>
<path d="M21.8682 5.22656H20.3547V5.98332L21.8682 5.22656Z" fill="#FFCC00"/>
<path d="M21.8682 5.22656L20.6437 6.11618L20.1989 5.50395L21.8682 5.22656Z" fill="#FFCC00"/>
<path d="M21.321 6.91895L20.8533 5.47951L20.1336 5.71336L21.321 6.91895Z" fill="#FFCC00"/>
<path d="M21.321 6.91895L20.0966 6.02932L20.5414 5.4171L21.321 6.91895Z" fill="#FFCC00"/>
<path d="M18.99 5.22656H20.5035V5.98332L18.99 5.22656Z" fill="#FFCC00"/>
<path d="M18.99 5.22656L20.2144 6.11618L20.6593 5.50395L18.99 5.22656Z" fill="#FFCC00"/>
<path d="M19.5371 6.91895L20.0048 5.47951L20.7245 5.71336L19.5371 6.91895Z" fill="#FFCC00"/>
<path d="M19.5371 6.91895L20.7616 6.02932L20.3168 5.4171L19.5371 6.91895Z" fill="#FFCC00"/>
<path d="M20.4121 22.3428L19.9444 23.7822L20.6641 24.0161L20.4121 22.3428Z" fill="#FFCC00"/>
<path d="M20.4121 22.3428L20.8798 23.7822L20.1601 24.0161L20.4121 22.3428Z" fill="#FFCC00"/>
<path d="M21.8682 23.3887H20.3547V24.1454L21.8682 23.3887Z" fill="#FFCC00"/>
<path d="M21.8682 23.3887L20.6437 24.2783L20.1989 23.6661L21.8682 23.3887Z" fill="#FFCC00"/>
<path d="M21.321 25.0811L20.8533 23.6416L20.1336 23.8755L21.321 25.0811Z" fill="#FFCC00"/>
<path d="M21.321 25.0811L20.0966 24.1914L20.5414 23.5792L21.321 25.0811Z" fill="#FFCC00"/>
<path d="M18.99 23.3887H20.5035V24.1454L18.99 23.3887Z" fill="#FFCC00"/>
<path d="M18.99 23.3887L20.2144 24.2783L20.6593 23.6661L18.99 23.3887Z" fill="#FFCC00"/>
<path d="M19.5371 25.0811L20.0048 23.6416L20.7245 23.8755L19.5371 25.0811Z" fill="#FFCC00"/>
<path d="M19.5371 25.0811L20.7616 24.1914L20.3168 23.5792L19.5371 25.0811Z" fill="#FFCC00"/>
<path d="M11.334 13.2617L10.8663 14.7012L11.586 14.935L11.334 13.2617Z" fill="#FFCC00"/>
<path d="M11.334 13.2617L11.8017 14.7012L11.082 14.935L11.334 13.2617Z" fill="#FFCC00"/>
<path d="M12.79 14.3076H11.2765V15.0644L12.79 14.3076Z" fill="#FFCC00"/>
<path d="M12.79 14.3076L11.5656 15.1972L11.1208 14.585L12.79 14.3076Z" fill="#FFCC00"/>
<path d="M12.2429 16L11.7752 14.5606L11.0555 14.7944L12.2429 16Z" fill="#FFCC00"/>
<path d="M12.2429 16L11.0185 15.1104L11.4633 14.4981L12.2429 16Z" fill="#FFCC00"/>
<path d="M9.91187 14.3076H11.4254V15.0644L9.91187 14.3076Z" fill="#FFCC00"/>
<path d="M9.91187 14.3076L11.1363 15.1972L11.5811 14.585L9.91187 14.3076Z" fill="#FFCC00"/>
<path d="M10.459 16L10.9267 14.5606L11.6464 14.7944L10.459 16Z" fill="#FFCC00"/>
<path d="M10.459 16L11.6834 15.1104L11.2386 14.4981L10.459 16Z" fill="#FFCC00"/>
<path d="M14.9912 8.13501L16.2157 7.24539L15.7709 6.63316L14.9912 8.13501Z" fill="#FFCC00"/>
<path d="M14.9912 8.13501L15.4589 6.69557L16.1786 6.92942L14.9912 8.13501Z" fill="#FFCC00"/>
<path d="M14.4375 6.44336L15.662 7.33298L16.1068 6.72075L14.4375 6.44336Z" fill="#FFCC00"/>
<path d="M14.4375 6.44336H15.951V7.20012L14.4375 6.44336Z" fill="#FFCC00"/>
<path d="M15.873 5.39746L15.4053 6.8369L16.1251 7.07075L15.873 5.39746Z" fill="#FFCC00"/>
<path d="M15.873 5.39746L16.3407 6.8369L15.621 7.07075L15.873 5.39746Z" fill="#FFCC00"/>
<path d="M16.762 8.13501L15.5375 7.24539L15.9823 6.63316L16.762 8.13501Z" fill="#FFCC00"/>
<path d="M16.762 8.13501L16.2943 6.69557L15.5745 6.92942L16.762 8.13501Z" fill="#FFCC00"/>
<path d="M17.3088 6.44336L16.0844 7.33298L15.6396 6.72075L17.3088 6.44336Z" fill="#FFCC00"/>
<path d="M17.3088 6.44336H15.7953V7.20012L17.3088 6.44336Z" fill="#FFCC00"/>
<path d="M13.4463 11.4597L12.9786 10.0203L12.2589 10.2541L13.4463 11.4597Z" fill="#FFCC00"/>
<path d="M13.4463 11.4597L12.2218 10.5701L12.6666 9.95787L13.4463 11.4597Z" fill="#FFCC00"/>
<path d="M11.6824 11.459L12.9068 10.5694L12.462 9.95713L11.6824 11.459Z" fill="#FFCC00"/>
<path d="M11.6824 11.459L12.1501 10.0195L12.8698 10.2534L11.6824 11.459Z" fill="#FFCC00"/>
<path d="M11.1355 9.76733L12.36 10.657L12.8048 10.0447L11.1355 9.76733Z" fill="#FFCC00"/>
<path d="M11.1355 9.76733H12.649V10.5241L11.1355 9.76733Z" fill="#FFCC00"/>
<path d="M13.9863 9.76709L12.7619 10.6567L12.3171 10.0445L13.9863 9.76709Z" fill="#FFCC00"/>
<path d="M13.9863 9.76709H12.4728V10.5238L13.9863 9.76709Z" fill="#FFCC00"/>
<path d="M12.5508 8.72119L13.0185 10.1606L12.2988 10.3945L12.5508 8.72119Z" fill="#FFCC00"/>
<path d="M12.5508 8.72119L12.0831 10.1606L12.8028 10.3945L12.5508 8.72119Z" fill="#FFCC00"/>
<path d="M14.0068 18.8479H12.4933V19.6047L14.0068 18.8479Z" fill="#FFCC00"/>
<path d="M14.0068 18.8479L12.7824 19.7375L12.3376 19.1253L14.0068 18.8479Z" fill="#FFCC00"/>
<path d="M13.4668 20.54L12.9991 19.1006L12.2794 19.3345L13.4668 20.54Z" fill="#FFCC00"/>
<path d="M13.4668 20.54L12.2423 19.6504L12.6871 19.0382L13.4668 20.54Z" fill="#FFCC00"/>
<path d="M11.6895 20.5396L12.9139 19.6499L12.4691 19.0377L11.6895 20.5396Z" fill="#FFCC00"/>
<path d="M11.6895 20.5396L12.1572 19.1001L12.8769 19.334L11.6895 20.5396Z" fill="#FFCC00"/>
<path d="M12.5852 17.8022L13.0529 19.2417L12.3332 19.4755L12.5852 17.8022Z" fill="#FFCC00"/>
<path d="M12.5852 17.8022L12.1175 19.2417L12.8372 19.4755L12.5852 17.8022Z" fill="#FFCC00"/>
<path d="M11.1428 18.8481H12.6563V19.6049L11.1428 18.8481Z" fill="#FFCC00"/>
<path d="M11.1428 18.8481L12.3673 19.7378L12.8121 19.1255L11.1428 18.8481Z" fill="#FFCC00"/>
<path d="M17.3291 22.1719H15.8156V22.9286L17.3291 22.1719Z" fill="#FFCC00"/>
<path d="M17.3291 22.1719L16.1046 23.0615L15.6598 22.4493L17.3291 22.1719Z" fill="#FFCC00"/>
<path d="M16.7891 23.864L16.3214 22.4246L15.6016 22.6584L16.7891 23.864Z" fill="#FFCC00"/>
<path d="M16.7891 23.864L15.5646 22.9744L16.0094 22.3622L16.7891 23.864Z" fill="#FFCC00"/>
<path d="M15.0117 23.8635L16.2362 22.9739L15.7914 22.3617L15.0117 23.8635Z" fill="#FFCC00"/>
<path d="M15.0117 23.8635L15.4794 22.4241L16.1991 22.6579L15.0117 23.8635Z" fill="#FFCC00"/>
<path d="M15.9075 21.1262L16.3752 22.5657L15.6555 22.7995L15.9075 21.1262Z" fill="#FFCC00"/>
<path d="M15.9075 21.1262L15.4398 22.5657L16.1595 22.7995L15.9075 21.1262Z" fill="#FFCC00"/>
<path d="M14.4651 22.1721H15.9786V22.9289L14.4651 22.1721Z" fill="#FFCC00"/>
<path d="M14.4651 22.1721L15.6895 23.0617L16.1344 22.4495L14.4651 22.1721Z" fill="#FFCC00"/>
<path d="M29.5107 13.262L29.9784 14.7014L29.2587 14.9353L29.5107 13.262Z" fill="#FFCC00"/>
<path d="M29.5107 13.262L29.043 14.7014L29.7628 14.9353L29.5107 13.262Z" fill="#FFCC00"/>
<path d="M28.0547 14.3079H29.5682V15.0646L28.0547 14.3079Z" fill="#FFCC00"/>
<path d="M28.0547 14.3079L29.2791 15.1975L29.724 14.5853L28.0547 14.3079Z" fill="#FFCC00"/>
<path d="M28.6018 16.0002L29.0695 14.5608L29.7892 14.7947L28.6018 16.0002Z" fill="#FFCC00"/>
<path d="M28.6018 16.0002L29.8263 15.1106L29.3815 14.4984L28.6018 16.0002Z" fill="#FFCC00"/>
<path d="M30.9329 14.3079H29.4193V15.0646L30.9329 14.3079Z" fill="#FFCC00"/>
<path d="M30.9329 14.3079L29.7084 15.1975L29.2636 14.5853L30.9329 14.3079Z" fill="#FFCC00"/>
<path d="M30.3857 16.0002L29.918 14.5608L29.1983 14.7947L30.3857 16.0002Z" fill="#FFCC00"/>
<path d="M30.3857 16.0002L29.1613 15.1106L29.6061 14.4984L30.3857 16.0002Z" fill="#FFCC00"/>
<path d="M25.8535 8.13525L24.6291 7.24563L25.0739 6.6334L25.8535 8.13525Z" fill="#FFCC00"/>
<path d="M25.8535 8.13525L25.3858 6.69582L24.6661 6.92967L25.8535 8.13525Z" fill="#FFCC00"/>
<path d="M26.4072 6.4436L25.1828 7.33322L24.738 6.721L26.4072 6.4436Z" fill="#FFCC00"/>
<path d="M26.4072 6.4436H24.8937V7.20036L26.4072 6.4436Z" fill="#FFCC00"/>
<path d="M24.9717 5.39771L25.4394 6.83714L24.7197 7.07099L24.9717 5.39771Z" fill="#FFCC00"/>
<path d="M24.9717 5.39771L24.504 6.83714L25.2237 7.07099L24.9717 5.39771Z" fill="#FFCC00"/>
<path d="M24.0828 8.13525L25.3072 7.24563L24.8624 6.6334L24.0828 8.13525Z" fill="#FFCC00"/>
<path d="M24.0828 8.13525L24.5505 6.69582L25.2702 6.92967L24.0828 8.13525Z" fill="#FFCC00"/>
<path d="M23.5359 6.4436L24.7603 7.33322L25.2052 6.721L23.5359 6.4436Z" fill="#FFCC00"/>
<path d="M23.5359 6.4436H25.0494V7.20036L23.5359 6.4436Z" fill="#FFCC00"/>
<path d="M27.3984 11.46L27.8661 10.0205L28.5859 10.2544L27.3984 11.46Z" fill="#FFCC00"/>
<path d="M27.3984 11.46L28.6229 10.5703L28.1781 9.95811L27.3984 11.46Z" fill="#FFCC00"/>
<path d="M29.1624 11.4592L27.9379 10.5696L28.3827 9.95738L29.1624 11.4592Z" fill="#FFCC00"/>
<path d="M29.1624 11.4592L28.6947 10.0198L27.9749 10.2536L29.1624 11.4592Z" fill="#FFCC00"/>
<path d="M29.7092 9.76758L28.4848 10.6572L28.04 10.045L29.7092 9.76758Z" fill="#FFCC00"/>
<path d="M29.7092 9.76758H28.1957V10.5243L29.7092 9.76758Z" fill="#FFCC00"/>
<path d="M26.8584 9.76733L28.0829 10.657L28.5277 10.0447L26.8584 9.76733Z" fill="#FFCC00"/>
<path d="M26.8584 9.76733H28.3719V10.5241L26.8584 9.76733Z" fill="#FFCC00"/>
<path d="M28.2939 8.72144L27.8262 10.1609L28.546 10.3947L28.2939 8.72144Z" fill="#FFCC00"/>
<path d="M28.2939 8.72144L28.7616 10.1609L28.0419 10.3947L28.2939 8.72144Z" fill="#FFCC00"/>
<path d="M26.8379 18.8481H28.3514V19.6049L26.8379 18.8481Z" fill="#FFCC00"/>
<path d="M26.8379 18.8481L28.0623 19.7378L28.5072 19.1255L26.8379 18.8481Z" fill="#FFCC00"/>
<path d="M27.3779 20.5403L27.8456 19.1008L28.5653 19.3347L27.3779 20.5403Z" fill="#FFCC00"/>
<path d="M27.3779 20.5403L28.6024 19.6507L28.1576 19.0384L27.3779 20.5403Z" fill="#FFCC00"/>
<path d="M29.1553 20.5398L27.9308 19.6502L28.3756 19.0379L29.1553 20.5398Z" fill="#FFCC00"/>
<path d="M29.1553 20.5398L28.6876 19.1004L27.9679 19.3342L29.1553 20.5398Z" fill="#FFCC00"/>
<path d="M28.2595 17.8025L27.7918 19.2419L28.5115 19.4758L28.2595 17.8025Z" fill="#FFCC00"/>
<path d="M28.2595 17.8025L28.7272 19.2419L28.0075 19.4758L28.2595 17.8025Z" fill="#FFCC00"/>
<path d="M29.7019 18.8484H28.1884V19.6051L29.7019 18.8484Z" fill="#FFCC00"/>
<path d="M29.7019 18.8484L28.4774 19.738L28.0326 19.1258L29.7019 18.8484Z" fill="#FFCC00"/>
<path d="M23.5156 22.1721H25.0291V22.9289L23.5156 22.1721Z" fill="#FFCC00"/>
<path d="M23.5156 22.1721L24.7401 23.0617L25.1849 22.4495L23.5156 22.1721Z" fill="#FFCC00"/>
<path d="M24.0557 23.8643L24.5234 22.4248L25.2431 22.6587L24.0557 23.8643Z" fill="#FFCC00"/>
<path d="M24.0557 23.8643L25.2801 22.9746L24.8353 22.3624L24.0557 23.8643Z" fill="#FFCC00"/>
<path d="M25.833 23.8638L24.6085 22.9741L25.0534 22.3619L25.833 23.8638Z" fill="#FFCC00"/>
<path d="M25.833 23.8638L25.3653 22.4243L24.6456 22.6582L25.833 23.8638Z" fill="#FFCC00"/>
<path d="M24.9373 21.1265L24.4696 22.5659L25.1893 22.7998L24.9373 21.1265Z" fill="#FFCC00"/>
<path d="M24.9373 21.1265L25.405 22.5659L24.6852 22.7998L24.9373 21.1265Z" fill="#FFCC00"/>
<path d="M26.3796 22.1724H24.8661V22.9291L26.3796 22.1724Z" fill="#FFCC00"/>
<path d="M26.3796 22.1724L25.1552 23.062L24.7104 22.4498L26.3796 22.1724Z" fill="#FFCC00"/>
</g>
<path d="M49.5864 12.9204V6.47803H51.6738C52.4648 6.47803 52.9805 6.51025 53.2207 6.57471C53.5898 6.67139 53.8989 6.88232 54.1479 7.20752C54.397 7.52979 54.5215 7.94727 54.5215 8.45996C54.5215 8.85547 54.4497 9.18799 54.3062 9.45752C54.1626 9.72705 53.9795 9.93945 53.7568 10.0947C53.5371 10.2471 53.313 10.3481 53.0845 10.3979C52.7739 10.4595 52.3242 10.4902 51.7354 10.4902H50.8872V12.9204H49.5864ZM50.8872 7.56787V9.396H51.5991C52.1118 9.396 52.4546 9.3623 52.6274 9.29492C52.8003 9.22754 52.9351 9.12207 53.0317 8.97852C53.1313 8.83496 53.1812 8.66797 53.1812 8.47754C53.1812 8.24316 53.1123 8.0498 52.9746 7.89746C52.8369 7.74512 52.6626 7.6499 52.4517 7.61182C52.2964 7.58252 51.9844 7.56787 51.5156 7.56787H50.8872Z" fill="white"/>
<path d="M55.7737 12.9204V6.47803H58.5115C59.2 6.47803 59.6995 6.53662 60.0101 6.65381C60.3236 6.76807 60.574 6.97314 60.7615 7.26904C60.949 7.56494 61.0428 7.90332 61.0428 8.28418C61.0428 8.76758 60.9007 9.16748 60.6165 9.48389C60.3323 9.79736 59.9075 9.99512 59.3421 10.0771C59.6234 10.2412 59.8548 10.4214 60.0364 10.6177C60.221 10.814 60.4686 11.1626 60.7791 11.6636L61.5657 12.9204H60.0101L59.0696 11.5186C58.7357 11.0176 58.5071 10.7026 58.3841 10.5737C58.2611 10.4419 58.1307 10.3525 57.993 10.3057C57.8553 10.2559 57.637 10.231 57.3382 10.231H57.0745V12.9204H55.7737ZM57.0745 9.20264H58.0369C58.661 9.20264 59.0506 9.17627 59.2059 9.12354C59.3612 9.0708 59.4827 8.97998 59.5706 8.85107C59.6585 8.72217 59.7025 8.56104 59.7025 8.36768C59.7025 8.15088 59.6439 7.97656 59.5267 7.84473C59.4124 7.70996 59.2498 7.625 59.0389 7.58984C58.9334 7.5752 58.617 7.56787 58.0897 7.56787H57.0745V9.20264Z" fill="white"/>
<path d="M62.1896 9.73877C62.1896 9.08252 62.2877 8.53174 62.484 8.08643C62.6305 7.7583 62.8297 7.46387 63.0817 7.20312C63.3366 6.94238 63.6149 6.74902 63.9166 6.62305C64.318 6.45312 64.7809 6.36816 65.3053 6.36816C66.2545 6.36816 67.0133 6.6626 67.5817 7.25146C68.153 7.84033 68.4386 8.65918 68.4386 9.70801C68.4386 10.748 68.1559 11.5625 67.5905 12.1514C67.025 12.7373 66.2692 13.0303 65.3229 13.0303C64.3649 13.0303 63.6032 12.7388 63.0377 12.1558C62.4723 11.5698 62.1896 10.7642 62.1896 9.73877ZM63.5299 9.69482C63.5299 10.4243 63.6984 10.978 64.0353 11.356C64.3722 11.731 64.7999 11.9185 65.3185 11.9185C65.8371 11.9185 66.2619 11.7324 66.5929 11.3604C66.9269 10.9854 67.0939 10.4243 67.0939 9.67725C67.0939 8.93896 66.9313 8.38818 66.6061 8.0249C66.2838 7.66162 65.8546 7.47998 65.3185 7.47998C64.7824 7.47998 64.3502 7.66455 64.0221 8.03369C63.694 8.3999 63.5299 8.95361 63.5299 9.69482Z" fill="white"/>
<path d="M72.6352 10.5518V9.46631H75.4389V12.0327C75.1665 12.2964 74.771 12.5293 74.2524 12.7314C73.7368 12.9307 73.2138 13.0303 72.6836 13.0303C72.0097 13.0303 71.4223 12.8896 70.9213 12.6084C70.4204 12.3242 70.0439 11.9199 69.792 11.3955C69.54 10.8682 69.414 10.2954 69.414 9.67725C69.414 9.00635 69.5546 8.41016 69.8359 7.88867C70.1171 7.36719 70.5288 6.96729 71.0708 6.68896C71.4838 6.4751 71.998 6.36816 72.6132 6.36816C73.413 6.36816 74.0371 6.53662 74.4853 6.87354C74.9365 7.20752 75.2265 7.67041 75.3554 8.26221L74.0634 8.50391C73.9726 8.1875 73.8012 7.93848 73.5493 7.75684C73.3003 7.57227 72.9882 7.47998 72.6132 7.47998C72.0449 7.47998 71.5922 7.66016 71.2553 8.02051C70.9213 8.38086 70.7544 8.91553 70.7544 9.62451C70.7544 10.3892 70.9243 10.9634 71.2641 11.3472C71.604 11.728 72.0493 11.9185 72.6001 11.9185C72.8725 11.9185 73.145 11.8657 73.4174 11.7603C73.6928 11.6519 73.9287 11.5215 74.125 11.3691V10.5518H72.6352Z" fill="white"/>
<path d="M76.8274 12.9204V6.47803H79.5652C80.2537 6.47803 80.7532 6.53662 81.0637 6.65381C81.3772 6.76807 81.6277 6.97314 81.8152 7.26904C82.0027 7.56494 82.0965 7.90332 82.0965 8.28418C82.0965 8.76758 81.9544 9.16748 81.6702 9.48389C81.386 9.79736 80.9612 9.99512 80.3958 10.0771C80.677 10.2412 80.9085 10.4214 81.0901 10.6177C81.2747 10.814 81.5222 11.1626 81.8328 11.6636L82.6194 12.9204H81.0637L80.1233 11.5186C79.7893 11.0176 79.5608 10.7026 79.4378 10.5737C79.3147 10.4419 79.1844 10.3525 79.0467 10.3057C78.909 10.2559 78.6907 10.231 78.3919 10.231H78.1282V12.9204H76.8274ZM78.1282 9.20264H79.0906C79.7146 9.20264 80.1043 9.17627 80.2596 9.12354C80.4148 9.0708 80.5364 8.97998 80.6243 8.85107C80.7122 8.72217 80.7561 8.56104 80.7561 8.36768C80.7561 8.15088 80.6975 7.97656 80.5804 7.84473C80.4661 7.70996 80.3035 7.625 80.0926 7.58984C79.9871 7.5752 79.6707 7.56787 79.1433 7.56787H78.1282V9.20264Z" fill="white"/>
<path d="M89.3165 12.9204H87.9015L87.339 11.457H84.7638L84.232 12.9204H82.8521L85.3614 6.47803H86.7369L89.3165 12.9204ZM86.9215 10.3716L86.0338 7.98096L85.1637 10.3716H86.9215Z" fill="white"/>
<path d="M90.1733 12.9204V6.47803H92.12L93.289 10.8726L94.4447 6.47803H96.3959V12.9204H95.1874V7.84912L93.9086 12.9204H92.6562L91.3818 7.84912V12.9204H90.1733Z" fill="white"/>
<path d="M97.8503 12.9204V6.47803H99.7971L100.966 10.8726L102.122 6.47803H104.073V12.9204H102.864V7.84912L101.586 12.9204H100.333L99.0588 7.84912V12.9204H97.8503Z" fill="white"/>
<path d="M105.545 12.9204V6.47803H110.322V7.56787H106.846V8.99609H110.08V10.0815H106.846V11.835H110.445V12.9204H105.545Z" fill="white"/>
<path d="M114.149 9.73877C114.149 9.08252 114.247 8.53174 114.444 8.08643C114.59 7.7583 114.789 7.46387 115.041 7.20312C115.296 6.94238 115.574 6.74902 115.876 6.62305C116.278 6.45312 116.74 6.36816 117.265 6.36816C118.214 6.36816 118.973 6.6626 119.541 7.25146C120.113 7.84033 120.398 8.65918 120.398 9.70801C120.398 10.748 120.115 11.5625 119.55 12.1514C118.985 12.7373 118.229 13.0303 117.282 13.0303C116.324 13.0303 115.563 12.7388 114.997 12.1558C114.432 11.5698 114.149 10.7642 114.149 9.73877ZM115.489 9.69482C115.489 10.4243 115.658 10.978 115.995 11.356C116.332 11.731 116.759 11.9185 117.278 11.9185C117.797 11.9185 118.221 11.7324 118.552 11.3604C118.886 10.9854 119.053 10.4243 119.053 9.67725C119.053 8.93896 118.891 8.38818 118.566 8.0249C118.243 7.66162 117.814 7.47998 117.278 7.47998C116.742 7.47998 116.31 7.66455 115.982 8.03369C115.654 8.3999 115.489 8.95361 115.489 9.69482Z" fill="white"/>
<path d="M121.606 12.9204V6.47803H126.023V7.56787H122.907V9.09277H125.597V10.1826H122.907V12.9204H121.606Z" fill="white"/>
<path d="M51.0366 22.9204V17.5679H49.125V16.478H54.2446V17.5679H52.3374V22.9204H51.0366Z" fill="white"/>
<path d="M55.2728 22.9204V16.478H56.5736V19.0137H59.1224V16.478H60.4232V22.9204H59.1224V20.1035H56.5736V22.9204H55.2728Z" fill="white"/>
<path d="M61.9523 22.9204V16.478H66.7291V17.5679H63.2531V18.9961H66.4874V20.0815H63.2531V21.835H66.8522V22.9204H61.9523Z" fill="white"/>
<path d="M70.8201 22.9204V16.478H75.597V17.5679H72.1209V18.9961H75.3553V20.0815H72.1209V21.835H75.72V22.9204H70.8201Z" fill="white"/>
<path d="M76.9942 16.478H78.295V19.9673C78.295 20.521 78.3111 20.8799 78.3434 21.0439C78.399 21.3076 78.5309 21.52 78.7389 21.6812C78.9498 21.8394 79.2369 21.9185 79.6002 21.9185C79.9693 21.9185 80.2477 21.8438 80.4352 21.6943C80.6227 21.542 80.7354 21.356 80.7735 21.1362C80.8116 20.9165 80.8307 20.5518 80.8307 20.042V16.478H82.1314V19.8618C82.1314 20.6353 82.0963 21.1816 82.026 21.501C81.9557 21.8203 81.8253 22.0898 81.6349 22.3096C81.4474 22.5293 81.1954 22.7051 80.879 22.8369C80.5626 22.9658 80.1495 23.0303 79.6397 23.0303C79.0245 23.0303 78.5572 22.96 78.2379 22.8193C77.9215 22.6758 77.671 22.4912 77.4864 22.2656C77.3019 22.0371 77.1803 21.7983 77.1217 21.5493C77.0367 21.1802 76.9942 20.6353 76.9942 19.9146V16.478Z" fill="white"/>
<path d="M83.6913 22.9204V16.478H86.4291C87.1176 16.478 87.6171 16.5366 87.9277 16.6538C88.2411 16.7681 88.4916 16.9731 88.6791 17.269C88.8666 17.5649 88.9604 17.9033 88.9604 18.2842C88.9604 18.7676 88.8183 19.1675 88.5341 19.4839C88.2499 19.7974 87.8251 19.9951 87.2597 20.0771C87.5409 20.2412 87.7724 20.4214 87.954 20.6177C88.1386 20.814 88.3862 21.1626 88.6967 21.6636L89.4833 22.9204H87.9277L86.9872 21.5186C86.6532 21.0176 86.4247 20.7026 86.3017 20.5737C86.1786 20.4419 86.0483 20.3525 85.9106 20.3057C85.7729 20.2559 85.5546 20.231 85.2558 20.231H84.9921V22.9204H83.6913ZM84.9921 19.2026H85.9545C86.5785 19.2026 86.9682 19.1763 87.1235 19.1235C87.2787 19.0708 87.4003 18.98 87.4882 18.8511C87.5761 18.7222 87.62 18.561 87.62 18.3677C87.62 18.1509 87.5614 17.9766 87.4443 17.8447C87.33 17.71 87.1674 17.625 86.9565 17.5898C86.851 17.5752 86.5346 17.5679 86.0072 17.5679H84.9921V19.2026Z" fill="white"/>
<path d="M90.1072 19.7388C90.1072 19.0825 90.2053 18.5317 90.4016 18.0864C90.5481 17.7583 90.7473 17.4639 90.9993 17.2031C91.2541 16.9424 91.5325 16.749 91.8342 16.623C92.2356 16.4531 92.6985 16.3682 93.2229 16.3682C94.1721 16.3682 94.9309 16.6626 95.4993 17.2515C96.0705 17.8403 96.3562 18.6592 96.3562 19.708C96.3562 20.748 96.0735 21.5625 95.508 22.1514C94.9426 22.7373 94.1868 23.0303 93.2405 23.0303C92.2825 23.0303 91.5207 22.7388 90.9553 22.1558C90.3899 21.5698 90.1072 20.7642 90.1072 19.7388ZM91.4475 19.6948C91.4475 20.4243 91.616 20.978 91.9529 21.356C92.2898 21.731 92.7175 21.9185 93.2361 21.9185C93.7546 21.9185 94.1794 21.7324 94.5105 21.3604C94.8445 20.9854 95.0115 20.4243 95.0115 19.6772C95.0115 18.939 94.8489 18.3882 94.5237 18.0249C94.2014 17.6616 93.7722 17.48 93.2361 17.48C92.6999 17.48 92.2678 17.6646 91.9397 18.0337C91.6116 18.3999 91.4475 18.9536 91.4475 19.6948Z" fill="white"/>
<path d="M97.5557 22.9204V16.478H99.6431C100.434 16.478 100.95 16.5103 101.19 16.5747C101.559 16.6714 101.868 16.8823 102.117 17.2075C102.366 17.5298 102.491 17.9473 102.491 18.46C102.491 18.8555 102.419 19.188 102.275 19.4575C102.132 19.7271 101.949 19.9395 101.726 20.0947C101.506 20.2471 101.282 20.3481 101.054 20.3979C100.743 20.4595 100.294 20.4902 99.7046 20.4902H98.8565V22.9204H97.5557ZM98.8565 17.5679V19.396H99.5684C100.081 19.396 100.424 19.3623 100.597 19.2949C100.77 19.2275 100.904 19.1221 101.001 18.9785C101.101 18.835 101.15 18.668 101.15 18.4775C101.15 18.2432 101.082 18.0498 100.944 17.8975C100.806 17.7451 100.632 17.6499 100.421 17.6118C100.266 17.5825 99.9537 17.5679 99.4849 17.5679H98.8565Z" fill="white"/>
<path d="M103.739 22.9204V16.478H108.516V17.5679H105.039V18.9961H108.274V20.0815H105.039V21.835H108.639V22.9204H103.739Z" fill="white"/>
<path d="M115.731 22.9204H114.316L113.754 21.457H111.178L110.647 22.9204H109.267L111.776 16.478H113.152L115.731 22.9204ZM113.336 20.3716L112.448 17.981L111.578 20.3716H113.336Z" fill="white"/>
<path d="M116.619 22.9204V16.478H117.884L120.521 20.7803V16.478H121.73V22.9204H120.424L117.827 18.7192V22.9204H116.619Z" fill="white"/>
<path d="M125.965 16.478H127.266V19.9673C127.266 20.521 127.282 20.8799 127.315 21.0439C127.37 21.3076 127.502 21.52 127.71 21.6812C127.921 21.8394 128.208 21.9185 128.571 21.9185C128.941 21.9185 129.219 21.8438 129.406 21.6943C129.594 21.542 129.707 21.356 129.745 21.1362C129.783 20.9165 129.802 20.5518 129.802 20.042V16.478H131.103V19.8618C131.103 20.6353 131.068 21.1816 130.997 21.501C130.927 21.8203 130.797 22.0898 130.606 22.3096C130.419 22.5293 130.167 22.7051 129.85 22.8369C129.534 22.9658 129.121 23.0303 128.611 23.0303C127.996 23.0303 127.528 22.96 127.209 22.8193C126.893 22.6758 126.642 22.4912 126.458 22.2656C126.273 22.0371 126.152 21.7983 126.093 21.5493C126.008 21.1802 125.965 20.6353 125.965 19.9146V16.478Z" fill="white"/>
<path d="M132.671 22.9204V16.478H133.937L136.574 20.7803V16.478H137.782V22.9204H136.477L133.88 18.7192V22.9204H132.671Z" fill="white"/>
<path d="M139.303 22.9204V16.478H140.603V22.9204H139.303Z" fill="white"/>
<path d="M141.763 19.7388C141.763 19.0825 141.861 18.5317 142.058 18.0864C142.204 17.7583 142.403 17.4639 142.655 17.2031C142.91 16.9424 143.189 16.749 143.49 16.623C143.892 16.4531 144.355 16.3682 144.879 16.3682C145.828 16.3682 146.587 16.6626 147.155 17.2515C147.727 17.8403 148.012 18.6592 148.012 19.708C148.012 20.748 147.73 21.5625 147.164 22.1514C146.599 22.7373 145.843 23.0303 144.897 23.0303C143.939 23.0303 143.177 22.7388 142.611 22.1558C142.046 21.5698 141.763 20.7642 141.763 19.7388ZM143.104 19.6948C143.104 20.4243 143.272 20.978 143.609 21.356C143.946 21.731 144.374 21.9185 144.892 21.9185C145.411 21.9185 145.836 21.7324 146.167 21.3604C146.501 20.9854 146.668 20.4243 146.668 19.6772C146.668 18.939 146.505 18.3882 146.18 18.0249C145.858 17.6616 145.428 17.48 144.892 17.48C144.356 17.48 143.924 17.6646 143.596 18.0337C143.268 18.3999 143.104 18.9536 143.104 19.6948Z" fill="white"/>
<path d="M149.225 22.9204V16.478H150.491L153.127 20.7803V16.478H154.336V22.9204H153.031L150.434 18.7192V22.9204H149.225Z" fill="white"/>
<defs>
<clipPath id="clip0_380_4246">
<rect width="41.125" height="28" fill="white" transform="translate(0 0.699219)"/>
</clipPath>
</defs>
</svg>
